<svg xmlns="http://www.w3.org/2000/svg" viewBox="0 0 32 32">
  <!-- Document body -->
  <path d="M5 2a2 2 0 0 0-2 2v24a2 2 0 0 0 2 2h22a2 2 0 0 0 2-2V11L20 2H5z" fill="white"/>
  <!-- Outline -->
  <path d="M5 2a2 2 0 0 0-2 2v24a2 2 0 0 0 2 2h22a2 2 0 0 0 2-2V11L20 2H5z" fill="none" stroke="#9B1B5D" stroke-width="2"/>
  <!-- Folded corner -->
  <path d="M20 2l9 9h-9V2z" fill="#EDD5DF" stroke="#9B1B5D" stroke-width="2" stroke-linejoin="round"/>
  <!-- Content lines -->
  <rect x="7" y="15" width="14" height="2.5" rx="1.25" fill="#9B1B5D"/>
  <rect x="7" y="20" width="14" height="2.5" rx="1.25" fill="#9B1B5D"/>
  <rect x="7" y="25" width="9" height="2.5" rx="1.25" fill="#9B1B5D"/>
</svg>
